<svg width="577" height="141" viewBox="0 0 577 141" fill="none" xmlns="http://www.w3.org/2000/svg">
<path d="M70.5 0L80.4311 36.6779L108.615 11.1916L97.1402 47.4162L134.629 41.2132L105.391 65.4834L140.282 80.5332L102.565 85.1434L123.78 116.668L89.5576 100.154L90.3621 138.144L70.5 105.75L50.6379 138.144L51.4424 100.154L17.2197 116.668L38.4355 85.1434L0.71759 80.5332L35.6088 65.4834L6.37094 41.2132L43.8598 47.4162L32.3848 11.1916L60.5689 36.6779L70.5 0Z" fill="#598D66"/>
<path d="M179.191 100.171V42.9657H190.31V100.171H179.191ZM240.436 100.171H229.639V76.4834C229.639 73.0994 229.048 70.6286 227.867 69.0708C226.685 67.5131 225.047 66.7343 222.952 66.7343C221.502 66.7343 220.024 67.1103 218.52 67.8623C217.07 68.6143 215.754 69.6617 214.572 71.0046C213.391 72.2937 212.531 73.7977 211.994 75.5166V100.171H201.198V57.952H210.947V65.7674C212.504 63.1354 214.76 61.0674 217.715 59.5634C220.669 58.0057 223.999 57.2268 227.706 57.2268C230.338 57.2268 232.486 57.7103 234.151 58.6771C235.816 59.5903 237.106 60.8526 238.019 62.464C238.932 64.0217 239.55 65.7943 239.872 67.7817C240.248 69.7691 240.436 71.7834 240.436 73.8246V100.171ZM278.668 100.171L266.341 81.9623L260.62 87.6023V100.171H249.824V41.3543H260.62V76.9668L277.621 58.0326H289.062L273.351 75.9194L290.19 100.171H278.668ZM294.51 100.171V88.5691H303.373V100.171H294.51ZM381.353 42.9657V100.171H370.315V75.7583H344.371V100.171H333.252V42.9657H344.371V66.0897H370.315V42.9657H381.353ZM411.03 100.977C406.411 100.977 402.436 99.9834 399.106 97.996C395.829 95.9548 393.304 93.2691 391.532 89.9388C389.759 86.6086 388.873 83.0097 388.873 79.1423C388.873 75.2211 389.759 71.5954 391.532 68.2651C393.358 64.9348 395.91 62.276 399.186 60.2886C402.516 58.2474 406.464 57.2268 411.03 57.2268C415.596 57.2268 419.517 58.2474 422.794 60.2886C426.124 62.276 428.675 64.9348 430.448 68.2651C432.22 71.5954 433.107 75.2211 433.107 79.1423C433.107 83.0097 432.22 86.6086 430.448 89.9388C428.675 93.2691 426.124 95.9548 422.794 97.996C419.517 99.9834 415.596 100.977 411.03 100.977ZM399.992 79.1423C399.992 81.6131 400.475 83.8154 401.442 85.7491C402.409 87.6291 403.725 89.1063 405.39 90.1806C407.055 91.2548 408.935 91.792 411.03 91.792C413.071 91.792 414.924 91.2548 416.59 90.1806C418.255 89.0526 419.571 87.5486 420.538 85.6686C421.558 83.7348 422.068 81.5326 422.068 79.0617C422.068 76.6446 421.558 74.496 420.538 72.616C419.571 70.6823 418.255 69.1783 416.59 68.104C414.924 66.976 413.071 66.412 411.03 66.412C408.935 66.412 407.055 66.976 405.39 68.104C403.725 69.1783 402.409 70.6823 401.442 72.616C400.475 74.496 399.992 76.6714 399.992 79.1423ZM439.991 84.3794V57.952H450.788V82.0428C450.788 88.5423 453.124 91.792 457.797 91.792C459.892 91.792 461.907 91.1743 463.84 89.9388C465.828 88.6497 467.439 86.716 468.675 84.1377V57.952H479.471V88.0857C479.471 89.2674 479.659 90.1 480.035 90.5834C480.411 91.0131 481.083 91.2817 482.049 91.3891V100.171C480.975 100.386 480.062 100.521 479.31 100.574C478.612 100.628 477.967 100.655 477.376 100.655C475.443 100.655 473.858 100.225 472.623 99.3657C471.441 98.4526 470.743 97.2171 470.528 95.6594L470.286 92.2754C468.406 95.176 465.989 97.3514 463.035 98.8017C460.08 100.252 456.831 100.977 453.285 100.977C448.935 100.977 445.631 99.5806 443.375 96.7874C441.119 93.9406 439.991 89.8046 439.991 84.3794ZM505.751 100.977C502.152 100.977 498.714 100.386 495.438 99.2046C492.161 98.0228 489.341 96.2771 486.978 93.9674L490.845 86.9577C493.37 88.9988 495.84 90.5028 498.258 91.4697C500.675 92.4366 503.038 92.92 505.348 92.92C507.443 92.92 509.108 92.544 510.343 91.792C511.632 91.04 512.277 89.912 512.277 88.408C512.277 86.8503 511.498 85.8028 509.94 85.2657C508.383 84.6748 506.207 83.9497 503.414 83.0903C500.299 82.1234 497.694 81.1297 495.599 80.1091C493.504 79.0886 491.919 77.8531 490.845 76.4028C489.824 74.9526 489.314 73.0726 489.314 70.7628C489.314 66.6268 490.872 63.3234 493.987 60.8526C497.103 58.3817 501.239 57.1463 506.395 57.1463C509.403 57.1463 512.25 57.6297 514.936 58.5966C517.622 59.5097 520.066 61.0137 522.268 63.1086L517.917 69.9571C513.781 66.7343 509.779 65.1228 505.912 65.1228C504.193 65.1228 502.662 65.4451 501.319 66.0897C500.03 66.7343 499.386 67.8623 499.386 69.4737C499.386 70.9777 500.003 72.052 501.239 72.6966C502.528 73.3411 504.462 74.0394 507.04 74.7914C510.37 75.812 513.19 76.8057 515.5 77.7726C517.863 78.7394 519.636 79.9748 520.818 81.4788C522.053 82.9828 522.671 85.024 522.671 87.6023C522.671 91.792 521.14 95.0686 518.078 97.432C515.016 99.7954 510.907 100.977 505.751 100.977ZM549.593 100.977C545.027 100.977 541.079 99.9834 537.749 97.996C534.472 96.0086 531.921 93.3766 530.095 90.1C528.268 86.7697 527.355 83.1708 527.355 79.3034C527.355 75.3286 528.241 71.676 530.014 68.3457C531.84 64.9617 534.419 62.276 537.749 60.2886C541.079 58.2474 545.054 57.2268 549.673 57.2268C554.293 57.2268 558.241 58.2474 561.517 60.2886C564.794 62.276 567.292 64.9348 569.011 68.2651C570.783 71.5417 571.669 75.0868 571.669 78.9006C571.669 80.2971 571.589 81.5057 571.428 82.5263H538.796C539.065 85.8028 540.273 88.3811 542.422 90.2611C544.624 92.1411 547.149 93.0811 549.996 93.0811C552.144 93.0811 554.159 92.5708 556.039 91.5503C557.972 90.476 559.288 89.0794 559.987 87.3606L569.252 89.9388C567.695 93.1617 565.197 95.8206 561.759 97.9154C558.321 99.9566 554.266 100.977 549.593 100.977ZM538.555 75.6777H560.631C560.309 72.5086 559.1 69.9571 557.005 68.0234C554.964 66.036 552.467 65.0423 549.512 65.0423C546.612 65.0423 544.114 66.036 542.019 68.0234C539.978 69.9571 538.823 72.5086 538.555 75.6777Z" fill="#598D66"/>
</svg>
